<svg id="Layer_1" data-name="Layer 1" xmlns="http://www.w3.org/2000/svg" viewBox="0 0 24.67 38.38"><defs><style>.cls-1{fill:#231f20;}</style></defs><title>lightbult</title><path class="cls-1" d="M171.42,73.2a12.22,12.22,0,0,1-2.57,7.11q-2.4,3.26-2.74,3.85a13.92,13.92,0,0,0-1.54,7v0.09h-11V91.19a13.89,13.89,0,0,0-1.63-7,45.25,45.25,0,0,0-2.66-3.85,12.22,12.22,0,0,1-2.57-7.11,11.49,11.49,0,0,1,3.64-8.52,12.41,12.41,0,0,1,17.39,0A11.49,11.49,0,0,1,171.42,73.2Zm-4.2,6.94,0.51-.69a9.93,9.93,0,0,0-1.11-13.88,10.75,10.75,0,0,0-15.08,0,9.93,9.93,0,0,0-1.11,13.88l1.63,2.23a9.09,9.09,0,0,1,1.11,1.8,12.57,12.57,0,0,1,1.8,6.42h1.37V80.31l-2.74-5.48h1.46l2.66,5.48v9.59h2.74V80.31l2.66-5.48h1.46l-2.74,5.48v9.59h1.37a12.89,12.89,0,0,1,1.8-6.42,35.57,35.57,0,0,1,2.06-3.08l0.09-.09Q167.14,80.14,167.22,80.14ZM155,94V92.65h8.22V94H155Zm0,2.74V95.39h8.22v1.37H155Zm1.37,2.74V98.13h5.48V99.5h-5.48Z" transform="translate(-146.75 -61.13)"/></svg>